<svg width="186" height="64" viewBox="0 0 186 64" fill="none" xmlns="http://www.w3.org/2000/svg">
<path d="M155.07 24.0387L156.586 14.3427H142.417L144.704 0H133.327L132.429 5.62526C131.243 13.0635 123.495 17.5112 116.472 14.7875L115.333 14.3427C113.185 13.5718 110.843 13.1567 108.373 13.1567C99.1728 13.1567 91.6541 18.892 91.6541 27.995C91.6541 34.7216 95.6104 39.3683 104.019 42.0412L109.856 43.9177C113.613 45.108 115.396 46.5905 115.396 49.1617C115.396 52.525 112.427 54.2066 108.864 54.2066C104.514 54.2066 100.854 51.2373 99.1728 46.7896L89.875 51.6355C92.6453 59.1541 99.6684 64 108.67 64C117.671 64 125.613 58.8365 126.405 49.8648C127.134 58.7517 132.818 64 141.858 64C145.814 64 148.682 63.2079 150.558 62.2209V52.0294C149.076 53.0206 147 53.5162 145.217 53.5162C140.074 53.5162 137.702 51.1399 137.702 45.7984L140.884 24.0387H155.07ZM129.455 24.4622L126.448 46.9844C126.448 46.9844 126.418 47.0014 126.414 46.9844C125.91 41.2575 122.148 36.9793 113.715 34.226L107.975 32.3452C104.417 31.1592 102.536 29.4775 102.536 27.1054C102.536 24.3352 105.107 22.6535 108.373 22.6535C111.876 22.6535 114.744 25.0087 116.548 28.5965C116.62 28.7447 116.841 28.7235 116.875 28.5583C116.938 28.2364 117.048 27.7832 117.213 27.2452C117.213 27.241 117.218 27.2325 117.218 27.2283C117.506 26.3006 117.972 25.1357 118.704 23.9921C119.522 22.8484 120.653 21.8021 122.068 21.0651C122.805 20.6838 123.656 20.4551 124.639 20.4551C126.795 20.4551 128.078 21.0905 128.904 22.1706C129.201 22.5561 129.379 23.0136 129.459 23.488C129.514 23.8099 129.497 24.1403 129.455 24.4622Z" fill="url(#paint0_linear_5838_7252)"/>
<path d="M178.882 49.4062C175.024 49.4062 171.859 52.5747 171.859 56.531C171.859 60.4873 175.024 63.5541 178.882 63.5541C182.936 63.5541 186.003 60.2882 186.003 56.531C186.003 52.7738 182.936 49.4062 178.882 49.4062Z" fill="url(#paint1_linear_5838_7252)"/>
<path d="M14.7353 0H9.39388V17.0621H0.015625V21.7513H9.39388V51.2839C9.39388 53.7195 9.48707 57.0023 10.0504 58.595C11.4568 62.5344 15.5825 62.6276 17.1752 62.6276C21.0171 62.6276 23.3638 61.5051 24.5795 60.5647V54.9394C22.8936 56.1594 20.6444 57.7521 18.3951 57.7521C15.1123 57.7521 14.7353 54.8462 14.7353 52.3132V21.7513H24.5795V17.0621H14.7353V0Z" fill="url(#paint2_linear_5838_7252)"/>
<path d="M33.0789 24.1876V17.0628H27.5469V61.7853H33.0789V37.3146C33.0789 28.3133 36.0779 21.2818 45.6426 21.2818C46.9557 21.2818 48.0824 21.3749 49.205 21.5613V16.5926C47.6123 16.4062 46.1128 16.4062 45.363 16.4062C39.8309 16.4062 35.4256 18.9393 33.0789 24.1876Z" fill="url(#paint3_linear_5838_7252)"/>
<path d="M81.4207 39.6567C81.4207 44.2526 81.1411 48.9375 78.4217 52.6905C74.8593 57.566 70.077 57.6592 67.8277 57.6592C61.2663 57.6592 59.2966 53.813 58.5469 51.0978C57.8903 48.5648 57.7971 45.659 57.7971 40.2201V17.0625H52.1719V39.0001C52.1719 46.0317 52.4514 50.2507 53.3918 53.3471C55.3615 59.5357 60.9868 62.8185 67.1754 62.8185C74.7703 62.8185 78.9893 59.2561 81.4249 53.7241V61.7892H86.957V17.0625H81.4249V39.6567H81.4207Z" fill="url(#paint4_linear_5838_7252)"/>
<path d="M162.611 14.2188L155.508 62.8128H165.602L172.706 14.2188H162.611Z" fill="url(#paint5_linear_5838_7252)"/>
<defs>
<linearGradient id="paint0_linear_5838_7252" x1="123.23" y1="0" x2="123.23" y2="64" gradientUnits="userSpaceOnUse">
<stop stop-color="#D64718"/>
<stop offset="0.165" stop-color="#B3667E"/>
<stop offset="1" stop-color="#8875D5"/>
</linearGradient>
<linearGradient id="paint1_linear_5838_7252" x1="178.931" y1="49.4062" x2="178.931" y2="63.5541" gradientUnits="userSpaceOnUse">
<stop stop-color="#D64718"/>
<stop offset="0.165" stop-color="#B3667E"/>
<stop offset="1" stop-color="#8875D5"/>
</linearGradient>
<linearGradient id="paint2_linear_5838_7252" x1="12.2976" y1="0" x2="12.2976" y2="62.6276" gradientUnits="userSpaceOnUse">
<stop stop-color="#D64718"/>
<stop offset="0.165" stop-color="#B3667E"/>
<stop offset="1" stop-color="#8875D5"/>
</linearGradient>
<linearGradient id="paint3_linear_5838_7252" x1="38.3759" y1="16.4062" x2="38.3759" y2="61.7853" gradientUnits="userSpaceOnUse">
<stop stop-color="#D64718"/>
<stop offset="0.165" stop-color="#B3667E"/>
<stop offset="1" stop-color="#8875D5"/>
</linearGradient>
<linearGradient id="paint4_linear_5838_7252" x1="69.5644" y1="17.0625" x2="69.5644" y2="62.8185" gradientUnits="userSpaceOnUse">
<stop stop-color="#D64718"/>
<stop offset="0.165" stop-color="#B3667E"/>
<stop offset="1" stop-color="#8875D5"/>
</linearGradient>
<linearGradient id="paint5_linear_5838_7252" x1="164.107" y1="14.2187" x2="164.107" y2="62.8128" gradientUnits="userSpaceOnUse">
<stop stop-color="#D64718"/>
<stop offset="0.165" stop-color="#B3667E"/>
<stop offset="1" stop-color="#8875D5"/>
</linearGradient>
</defs>
</svg>
